# xmcd CD database file
#
# Track frame offsets:
#	150
#	20598
#	44748
#	64628
#
# Disc length: 1093 seconds
#
# Revision: 0
# Processed by: cddbd v1.5.1PL0 Copyright (c) Steve Scherf et al.
# Submitted via: CDex 1.51
#
DISCID=32044304
DTITLE=奥華子 - 奥華子vol.4
DYEAR=2005
DGENRE=Acoustic
TTITLE0=笑って笑って
TTITLE1=楔 -くさび-
TTITLE2=自由のカメ
TTITLE3=愛のしずく
EXTD=YEAR: 2005
EXTT0=
EXTT1=
EXTT2=
EXTT3=
PLAYORDER=
